<svg preserveAspectRatio="none" width="100%" height="100%" overflow="visible" style="display: block;" viewBox="0 0 74.2841 77.8267" fill="none" xmlns="http://www.w3.org/2000/svg">
<path id="Forma 1" d="M33.3556 3.33032C33.9272 -1.11011 40.357 -1.11011 40.9285 3.33032L42.0883 12.3402C42.5003 15.5409 46.4512 16.8183 48.6591 14.4647L54.8696 7.84428C57.9306 4.58126 63.141 8.33869 61.0114 12.2734L56.616 20.3945C55.0856 23.2222 57.5222 26.5595 60.6817 25.9632L69.7443 24.2525C74.1358 23.4235 76.1313 29.5196 72.0998 31.4479L63.6923 35.4694C60.7985 36.8535 60.7985 40.9732 63.6923 42.3574L72.0998 46.3788C76.1313 48.3072 74.1358 54.4032 69.7443 53.5743L60.6817 51.8636C57.5222 51.2672 55.0856 54.6046 56.616 57.4322L61.0114 65.5534C63.141 69.4881 57.9306 73.2455 54.8696 69.9825L48.6591 63.362C46.4512 61.0084 42.5003 62.2859 42.0883 65.4866L40.9285 74.4964C40.357 78.9368 33.9272 78.9369 33.3556 74.4964L32.1959 65.4866C31.7839 62.2859 27.833 61.0084 25.6251 63.362L19.4146 69.9825C16.3536 73.2455 11.1432 69.4881 13.2727 65.5534L17.6681 57.4322C19.1985 54.6046 16.7619 51.2672 13.6025 51.8636L4.53987 53.5743C0.14839 54.4032 -1.84719 48.3072 2.18439 46.3788L10.5919 42.3574C13.4857 40.9732 13.4857 36.8535 10.5919 35.4694L2.18441 31.4479C-1.84717 29.5195 0.148392 23.4235 4.53988 24.2525L13.6025 25.9632C16.7619 26.5595 19.1985 23.2222 17.6681 20.3945L13.2727 12.2734C11.1432 8.33868 16.3536 4.58124 19.4146 7.84427L25.6251 14.4647C27.833 16.8183 31.7839 15.5409 32.1959 12.3402L33.3556 3.33032Z" fill="var(--fill-0, #685682)"/>
</svg>
