<svg preserveAspectRatio="none" width="100%" height="100%" overflow="visible" style="display: block;" viewBox="0 0 144.647 142.442" fill="none" xmlns="http://www.w3.org/2000/svg">
<path id="forma 3" d="M66.5789 4.26746C68.295 -1.4225 76.3516 -1.42248 78.0677 4.26748L85.3667 28.4682C86.4592 32.0905 90.5907 33.8098 93.9304 32.032L116.576 19.9774C121.857 17.1662 127.549 22.9691 124.636 28.1949L112.586 49.8149C110.706 53.1879 112.455 57.4327 116.166 58.5016L140.307 65.4556C146.093 67.1221 146.093 75.3202 140.307 76.9867L116.166 83.9407C112.455 85.0095 110.706 89.2544 112.586 92.6274L124.636 114.247C127.549 119.473 121.857 125.276 116.576 122.465L93.9304 110.41C90.5907 108.632 86.4592 110.352 85.3667 113.974L78.0677 138.175C76.3516 143.865 68.295 143.865 66.5789 138.175L59.2799 113.974C58.1874 110.352 54.0558 108.632 50.7161 110.41L28.0709 122.465C22.7899 125.276 17.098 119.473 20.0107 114.247L32.061 92.6274C33.941 89.2544 32.1915 85.0095 28.4809 83.9407L4.33923 76.9867C-1.44642 75.3202 -1.4464 67.1221 4.33924 65.4556L28.4809 58.5016C32.1915 57.4327 33.941 53.1879 32.061 49.8149L20.0107 28.1949C17.098 22.9691 22.7899 17.1662 28.0709 19.9774L50.7161 32.032C54.0558 33.8098 58.1874 32.0905 59.2799 28.4682L66.5789 4.26746Z" fill="var(--fill-0, #FFD285)"/>
</svg>
