<svg preserveAspectRatio="none" width="100%" height="100%" overflow="visible" style="display: block;" viewBox="0 0 24.7826 19" fill="none" xmlns="http://www.w3.org/2000/svg">
<path id="Vector" d="M2.47826 19C1.79674 19 1.21332 18.7674 0.727989 18.3023C0.242663 17.8372 0 17.2781 0 16.625V2.375C0 1.72188 0.242663 1.16276 0.727989 0.697656C1.21332 0.232552 1.79674 0 2.47826 0H22.3043C22.9859 0 23.5693 0.232552 24.0546 0.697656C24.5399 1.16276 24.7826 1.72188 24.7826 2.375V16.625C24.7826 17.2781 24.5399 17.8372 24.0546 18.3023C23.5693 18.7674 22.9859 19 22.3043 19H2.47826ZM2.47826 16.625H15.4891V12.4688H2.47826V16.625ZM17.9674 16.625H22.3043V5.9375H17.9674V16.625ZM2.47826 10.0938H15.4891V5.9375H2.47826V10.0938Z" fill="var(--fill-0, #3B5345)"/>
</svg>
