<svg preserveAspectRatio="none" width="100%" height="100%" overflow="visible" style="display: block;" viewBox="0 0 142.124 148.57" fill="none" xmlns="http://www.w3.org/2000/svg">
<path id="forma 2" d="M67.2762 3.3242C67.854 -1.10805 74.2697 -1.10807 74.8475 3.32418L79.3431 37.8094C79.7585 40.9953 83.6835 42.2747 85.8965 39.9454L109.893 14.6875C112.974 11.4456 118.158 15.2309 116.009 19.1521L99.3259 49.5871C97.7779 52.4113 100.207 55.7654 103.373 55.1753L137.593 48.7975C141.992 47.9776 143.969 54.0916 139.922 56.0027L108.521 70.8328C105.605 72.2102 105.605 76.3595 108.521 77.7369L139.923 92.567C143.969 94.4781 141.992 100.592 137.593 99.7722L103.373 93.3944C100.207 92.8043 97.7779 96.1584 99.3259 98.9826L116.009 129.418C118.158 133.339 112.974 137.124 109.893 133.882L85.8965 108.624C83.6835 106.295 79.7585 107.574 79.3431 110.76L74.8475 145.245C74.2697 149.678 67.854 149.678 67.2762 145.246L62.7806 110.76C62.3652 107.574 58.4402 106.295 56.2272 108.624L32.2302 133.882C29.1502 137.124 23.9653 133.339 26.1147 129.418L42.7977 98.9826C44.3458 96.1584 41.9166 92.8043 38.7505 93.3944L4.53102 99.7722C0.131819 100.592 -1.8452 94.4781 2.20118 92.567L33.6024 77.7369C36.5189 76.3595 36.5189 72.2102 33.6024 70.8328L2.20116 56.0026C-1.84522 54.0916 0.131808 47.9776 4.53101 48.7975L38.7505 55.1753C41.9166 55.7654 44.3458 52.4113 42.7977 49.5871L26.1147 19.1521C23.9653 15.2309 29.1502 11.4456 32.2302 14.6875L56.2272 39.9454C58.4402 42.2747 62.3652 40.9953 62.7806 37.8094L67.2762 3.3242Z" fill="var(--fill-0, #C2BB6D)"/>
</svg>
